M48
METRIC,TZ
T1C0.300
T2C0.450
T3C1.016
%
G90
G05
T1
X8.7Y-1.2
X10.2Y-6.1
X15.1Y-2.
X15.7Y-1.2
X15.7Y-7.8
X17.1Y-7.8
X17.9Y-11.8
X24.2Y-10.6
T2
X2.8Y-1.8
X5.Y-7.5
X7.6Y-4.7
X20.5Y-12.1
X20.5Y-13.2
X20.9Y-6.4
X21.9Y-2.8
X26.7Y-13.5
T3
X1.75Y-3.69
X1.75Y-6.23
X1.75Y-8.77
X1.75Y-11.31
X5.96Y-13.25
X8.5Y-13.25
X11.08Y-13.25
X13.54Y-13.25
X16.08Y-13.25
X28.25Y-3.69
X28.25Y-6.23
X28.25Y-8.77
X28.25Y-11.31
T0
M30
