G04 (created by PCBNEW (2013-07-07 BZR 4022)-stable) date 04/11/2014 12:02:10*
%MOIN*%
G04 Gerber Fmt 3.4, Leading zero omitted, Abs format*
%FSLAX34Y34*%
G01*
G70*
G90*
G04 APERTURE LIST*
%ADD10C,0.00590551*%
%ADD11R,0.06X0.06*%
%ADD12C,0.06*%
%ADD13R,0.045X0.025*%
%ADD14R,0.025X0.045*%
%ADD15R,0.0236X0.0157*%
%ADD16R,0.0157X0.0236*%
%ADD17R,0.016X0.05*%
%ADD18R,0.1X0.0507874*%
%ADD19R,0.0200787X0.0866142*%
G04 APERTURE END LIST*
G54D10*
G54D11*
X11122Y-4452D03*
G54D12*
X11122Y-3452D03*
X11122Y-2452D03*
X11122Y-1452D03*
G54D11*
X688Y-1452D03*
G54D12*
X688Y-2452D03*
X688Y-3452D03*
X688Y-4452D03*
G54D13*
X1653Y-1235D03*
X1653Y-1835D03*
G54D14*
X7495Y-748D03*
X8095Y-748D03*
X8095Y-1456D03*
X7495Y-1456D03*
G54D13*
X1692Y-4118D03*
X1692Y-3518D03*
X2401Y-3518D03*
X2401Y-4118D03*
X7598Y-2937D03*
X7598Y-2337D03*
X7598Y-4118D03*
X7598Y-3518D03*
X2440Y-2229D03*
X2440Y-1629D03*
G54D15*
X8228Y-3405D03*
X8228Y-3051D03*
X8543Y-4823D03*
X8543Y-5177D03*
X2519Y-3051D03*
X2519Y-2697D03*
G54D16*
X1869Y-708D03*
X1515Y-708D03*
G54D17*
X3271Y-4155D03*
X3521Y-4155D03*
X3781Y-4155D03*
X4041Y-4155D03*
X4291Y-4155D03*
X4551Y-4155D03*
X4811Y-4155D03*
X5061Y-4155D03*
X5321Y-4155D03*
X5571Y-4155D03*
X5831Y-4155D03*
X6091Y-4155D03*
X6341Y-4155D03*
X6601Y-4155D03*
X6601Y-1355D03*
X6341Y-1355D03*
X6101Y-1355D03*
X5831Y-1355D03*
X5571Y-1355D03*
X5321Y-1355D03*
X5061Y-1355D03*
X4811Y-1355D03*
X4551Y-1355D03*
X4291Y-1355D03*
X4041Y-1355D03*
X3781Y-1355D03*
X3521Y-1355D03*
X3271Y-1355D03*
G54D11*
X2346Y-5216D03*
G54D12*
X3346Y-5216D03*
X4362Y-5216D03*
X5330Y-5216D03*
X6330Y-5216D03*
G54D18*
X9527Y-433D03*
G54D19*
X9027Y-5127D03*
X9527Y-5127D03*
X10027Y-5127D03*
G54D14*
X4936Y-669D03*
X5536Y-669D03*
X4433Y-669D03*
X3833Y-669D03*
M02*
