G04 (created by PCBNEW (2013-07-07 BZR 4022)-stable) date 29/10/2014 14:18:24*
%MOIN*%
G04 Gerber Fmt 3.4, Leading zero omitted, Abs format*
%FSLAX34Y34*%
G01*
G70*
G90*
G04 APERTURE LIST*
%ADD10C,0.00590551*%
%ADD11C,0.00748031*%
%ADD12C,0.011811*%
G04 APERTURE END LIST*
G54D10*
G54D11*
X8614Y-2905D02*
X8483Y-2905D01*
X8427Y-3112D02*
X8614Y-3112D01*
X8614Y-2718D01*
X8427Y-2718D01*
X8295Y-2849D02*
X8089Y-2849D01*
X8295Y-3112D01*
X8089Y-3112D01*
X7995Y-2718D02*
X7770Y-2718D01*
X7883Y-3112D02*
X7883Y-2718D01*
X7489Y-3093D02*
X7527Y-3112D01*
X7602Y-3112D01*
X7639Y-3093D01*
X7658Y-3055D01*
X7658Y-2905D01*
X7639Y-2868D01*
X7602Y-2849D01*
X7527Y-2849D01*
X7489Y-2868D01*
X7470Y-2905D01*
X7470Y-2943D01*
X7658Y-2980D01*
X7302Y-3112D02*
X7302Y-2849D01*
X7302Y-2887D02*
X7283Y-2868D01*
X7245Y-2849D01*
X7189Y-2849D01*
X7152Y-2868D01*
X7133Y-2905D01*
X7133Y-3112D01*
X7133Y-2905D02*
X7114Y-2868D01*
X7077Y-2849D01*
X7020Y-2849D01*
X6983Y-2868D01*
X6964Y-2905D01*
X6964Y-3112D01*
X6777Y-2849D02*
X6777Y-3243D01*
X6777Y-2868D02*
X6739Y-2849D01*
X6664Y-2849D01*
X6627Y-2868D01*
X6608Y-2887D01*
X6589Y-2924D01*
X6589Y-3037D01*
X6608Y-3074D01*
X6627Y-3093D01*
X6664Y-3112D01*
X6739Y-3112D01*
X6777Y-3093D01*
X6102Y-3112D02*
X6121Y-3112D01*
X6158Y-3093D01*
X6214Y-3037D01*
X6308Y-2924D01*
X6346Y-2868D01*
X6364Y-2812D01*
X6364Y-2774D01*
X6346Y-2737D01*
X6308Y-2718D01*
X6289Y-2718D01*
X6252Y-2737D01*
X6233Y-2774D01*
X6233Y-2793D01*
X6252Y-2830D01*
X6271Y-2849D01*
X6383Y-2924D01*
X6402Y-2943D01*
X6421Y-2980D01*
X6421Y-3037D01*
X6402Y-3074D01*
X6383Y-3093D01*
X6346Y-3112D01*
X6289Y-3112D01*
X6252Y-3093D01*
X6233Y-3074D01*
X6177Y-2999D01*
X6158Y-2943D01*
X6158Y-2905D01*
X5708Y-3112D02*
X5839Y-2924D01*
X5933Y-3112D02*
X5933Y-2718D01*
X5783Y-2718D01*
X5746Y-2737D01*
X5727Y-2755D01*
X5708Y-2793D01*
X5708Y-2849D01*
X5727Y-2887D01*
X5746Y-2905D01*
X5783Y-2924D01*
X5933Y-2924D01*
X5539Y-3112D02*
X5539Y-2718D01*
X5539Y-2905D02*
X5314Y-2905D01*
X5314Y-3112D02*
X5314Y-2718D01*
X4827Y-3112D02*
X4827Y-2849D01*
X4827Y-2924D02*
X4808Y-2887D01*
X4790Y-2868D01*
X4752Y-2849D01*
X4715Y-2849D01*
X4433Y-3093D02*
X4471Y-3112D01*
X4546Y-3112D01*
X4583Y-3093D01*
X4602Y-3055D01*
X4602Y-2905D01*
X4583Y-2868D01*
X4546Y-2849D01*
X4471Y-2849D01*
X4433Y-2868D01*
X4415Y-2905D01*
X4415Y-2943D01*
X4602Y-2980D01*
X4283Y-2849D02*
X4190Y-3112D01*
X4096Y-2849D01*
X3740Y-3112D02*
X3965Y-3112D01*
X3852Y-3112D02*
X3852Y-2718D01*
X3890Y-2774D01*
X3927Y-2812D01*
X3965Y-2830D01*
X3571Y-3074D02*
X3552Y-3093D01*
X3571Y-3112D01*
X3590Y-3093D01*
X3571Y-3074D01*
X3571Y-3112D01*
X3308Y-2718D02*
X3271Y-2718D01*
X3233Y-2737D01*
X3215Y-2755D01*
X3196Y-2793D01*
X3177Y-2868D01*
X3177Y-2962D01*
X3196Y-3037D01*
X3215Y-3074D01*
X3233Y-3093D01*
X3271Y-3112D01*
X3308Y-3112D01*
X3346Y-3093D01*
X3365Y-3074D01*
X3383Y-3037D01*
X3402Y-2962D01*
X3402Y-2868D01*
X3383Y-2793D01*
X3365Y-2755D01*
X3346Y-2737D01*
X3308Y-2718D01*
G54D12*
X10205Y-1129D02*
X10261Y-1101D01*
X10346Y-1101D01*
X10430Y-1129D01*
X10486Y-1185D01*
X10514Y-1241D01*
X10543Y-1354D01*
X10543Y-1438D01*
X10514Y-1551D01*
X10486Y-1607D01*
X10430Y-1663D01*
X10346Y-1691D01*
X10289Y-1691D01*
X10205Y-1663D01*
X10177Y-1635D01*
X10177Y-1438D01*
X10289Y-1438D01*
X9924Y-1691D02*
X9924Y-1101D01*
X9586Y-1691D01*
X9586Y-1101D01*
X9305Y-1691D02*
X9305Y-1101D01*
X9165Y-1101D01*
X9080Y-1129D01*
X9024Y-1185D01*
X8996Y-1241D01*
X8968Y-1354D01*
X8968Y-1438D01*
X8996Y-1551D01*
X9024Y-1607D01*
X9080Y-1663D01*
X9165Y-1691D01*
X9305Y-1691D01*
X10514Y-2382D02*
X10318Y-2382D01*
X10233Y-2691D02*
X10514Y-2691D01*
X10514Y-2101D01*
X10233Y-2101D01*
X10036Y-2101D02*
X9643Y-2691D01*
X9643Y-2101D02*
X10036Y-2691D01*
X9502Y-2101D02*
X9165Y-2101D01*
X9333Y-2691D02*
X9333Y-2101D01*
X10514Y-3382D02*
X10318Y-3382D01*
X10233Y-3691D02*
X10514Y-3691D01*
X10514Y-3101D01*
X10233Y-3101D01*
X9980Y-3691D02*
X9980Y-3101D01*
X9643Y-3691D01*
X9643Y-3101D01*
X10571Y-4101D02*
X10205Y-4101D01*
X10402Y-4326D01*
X10318Y-4326D01*
X10261Y-4354D01*
X10233Y-4382D01*
X10205Y-4438D01*
X10205Y-4579D01*
X10233Y-4635D01*
X10261Y-4663D01*
X10318Y-4691D01*
X10486Y-4691D01*
X10543Y-4663D01*
X10571Y-4635D01*
X9952Y-4635D02*
X9924Y-4663D01*
X9952Y-4691D01*
X9980Y-4663D01*
X9952Y-4635D01*
X9952Y-4691D01*
X9727Y-4101D02*
X9361Y-4101D01*
X9558Y-4326D01*
X9474Y-4326D01*
X9418Y-4354D01*
X9390Y-4382D01*
X9361Y-4438D01*
X9361Y-4579D01*
X9390Y-4635D01*
X9418Y-4663D01*
X9474Y-4691D01*
X9643Y-4691D01*
X9699Y-4663D01*
X9727Y-4635D01*
X9193Y-4101D02*
X8996Y-4691D01*
X8799Y-4101D01*
X2505Y-4129D02*
X2561Y-4101D01*
X2645Y-4101D01*
X2730Y-4129D01*
X2786Y-4185D01*
X2814Y-4241D01*
X2842Y-4354D01*
X2842Y-4438D01*
X2814Y-4551D01*
X2786Y-4607D01*
X2730Y-4663D01*
X2645Y-4691D01*
X2589Y-4691D01*
X2505Y-4663D01*
X2477Y-4635D01*
X2477Y-4438D01*
X2589Y-4438D01*
X2224Y-4691D02*
X2224Y-4101D01*
X1886Y-4691D01*
X1886Y-4101D01*
X1605Y-4691D02*
X1605Y-4101D01*
X1464Y-4101D01*
X1380Y-4129D01*
X1324Y-4185D01*
X1296Y-4241D01*
X1267Y-4354D01*
X1267Y-4438D01*
X1296Y-4551D01*
X1324Y-4607D01*
X1380Y-4663D01*
X1464Y-4691D01*
X1605Y-4691D01*
X2111Y-3101D02*
X1774Y-3101D01*
X1942Y-3691D02*
X1942Y-3101D01*
X1633Y-3101D02*
X1239Y-3691D01*
X1239Y-3101D02*
X1633Y-3691D01*
X1830Y-2691D02*
X2027Y-2410D01*
X2167Y-2691D02*
X2167Y-2101D01*
X1942Y-2101D01*
X1886Y-2129D01*
X1858Y-2157D01*
X1830Y-2213D01*
X1830Y-2298D01*
X1858Y-2354D01*
X1886Y-2382D01*
X1942Y-2410D01*
X2167Y-2410D01*
X1633Y-2101D02*
X1239Y-2691D01*
X1239Y-2101D02*
X1633Y-2691D01*
X2983Y-1101D02*
X2617Y-1101D01*
X2814Y-1326D01*
X2730Y-1326D01*
X2674Y-1354D01*
X2645Y-1382D01*
X2617Y-1438D01*
X2617Y-1579D01*
X2645Y-1635D01*
X2674Y-1663D01*
X2730Y-1691D01*
X2899Y-1691D01*
X2955Y-1663D01*
X2983Y-1635D01*
X2364Y-1635D02*
X2336Y-1663D01*
X2364Y-1691D01*
X2392Y-1663D01*
X2364Y-1635D01*
X2364Y-1691D01*
X2139Y-1101D02*
X1774Y-1101D01*
X1971Y-1326D01*
X1886Y-1326D01*
X1830Y-1354D01*
X1802Y-1382D01*
X1774Y-1438D01*
X1774Y-1579D01*
X1802Y-1635D01*
X1830Y-1663D01*
X1886Y-1691D01*
X2055Y-1691D01*
X2111Y-1663D01*
X2139Y-1635D01*
X1605Y-1101D02*
X1408Y-1691D01*
X1211Y-1101D01*
M02*
