G04 (created by PCBNEW (2013-07-07 BZR 4022)-stable) date 04/11/2014 12:02:10*
%MOIN*%
G04 Gerber Fmt 3.4, Leading zero omitted, Abs format*
%FSLAX34Y34*%
G01*
G70*
G90*
G04 APERTURE LIST*
%ADD10C,0.00590551*%
%ADD11R,0.06X0.06*%
%ADD12C,0.06*%
%ADD13C,0.0259843*%
%ADD14C,0.0318898*%
%ADD15C,0.012*%
%ADD16C,0.01*%
G04 APERTURE END LIST*
G54D10*
G54D11*
X11122Y-4452D03*
G54D12*
X11122Y-3452D03*
X11122Y-2452D03*
X11122Y-1452D03*
G54D11*
X688Y-1452D03*
G54D12*
X688Y-2452D03*
X688Y-3452D03*
X688Y-4452D03*
G54D11*
X2346Y-5216D03*
G54D12*
X3346Y-5216D03*
X4362Y-5216D03*
X5330Y-5216D03*
X6330Y-5216D03*
G54D13*
X6732Y-3070D03*
X9527Y-4173D03*
X6181Y-3070D03*
X3425Y-472D03*
X6181Y-472D03*
X7047Y-4645D03*
X5944Y-787D03*
G54D14*
X10511Y-5314D03*
X8070Y-4763D03*
X8228Y-2519D03*
X2992Y-1850D03*
X8622Y-1102D03*
X1102Y-708D03*
X8070Y-5196D03*
X1968Y-2952D03*
G54D13*
X4015Y-2401D03*
G54D15*
X11122Y-2452D02*
X10503Y-3070D01*
X10503Y-3070D02*
X6732Y-3070D01*
X9094Y-3740D02*
X9527Y-4173D01*
X6850Y-3740D02*
X9094Y-3740D01*
X6181Y-3070D02*
X6850Y-3740D01*
X3425Y-472D02*
X3031Y-472D01*
X6181Y-472D02*
X3031Y-472D01*
X3031Y-472D02*
X2669Y-472D01*
X2669Y-472D02*
X2649Y-492D01*
X688Y-2452D02*
X2649Y-492D01*
X2649Y-492D02*
X2665Y-492D01*
X5330Y-5216D02*
X5901Y-4645D01*
X5901Y-4645D02*
X7047Y-4645D01*
X5944Y-787D02*
X4527Y-787D01*
X3370Y-787D02*
X2716Y-787D01*
X2716Y-787D02*
X1299Y-2204D01*
X1299Y-2204D02*
X1299Y-2858D01*
X688Y-3468D02*
X1299Y-2858D01*
X3370Y-787D02*
X3385Y-787D01*
X3385Y-787D02*
X4527Y-787D01*
X10511Y-5314D02*
X9960Y-4763D01*
X9960Y-4763D02*
X8070Y-4763D01*
X5838Y-5708D02*
X6822Y-5708D01*
X3346Y-5216D02*
X3838Y-5708D01*
X3838Y-5708D02*
X3937Y-5708D01*
X3346Y-5216D02*
X2854Y-5708D01*
X11122Y-1452D02*
X10771Y-1102D01*
X10771Y-1102D02*
X8622Y-1102D01*
X8228Y-2519D02*
X10055Y-2519D01*
X10055Y-2519D02*
X11122Y-1452D01*
X2874Y-2047D02*
X2992Y-1929D01*
X2992Y-1929D02*
X2992Y-1850D01*
X8622Y-1102D02*
X8625Y-1102D01*
X2874Y-2047D02*
X1968Y-2952D01*
X1102Y-708D02*
X314Y-708D01*
X314Y-708D02*
X196Y-826D01*
X196Y-826D02*
X196Y-2952D01*
X196Y-2952D02*
X196Y-3960D01*
X196Y-3960D02*
X688Y-4452D01*
X688Y-4452D02*
X688Y-4429D01*
X688Y-4429D02*
X1377Y-3740D01*
X1377Y-3740D02*
X1377Y-3641D01*
X8070Y-5196D02*
X8070Y-5708D01*
X1968Y-2952D02*
X1377Y-3543D01*
X1377Y-3543D02*
X1377Y-3641D01*
X6822Y-5708D02*
X8070Y-5708D01*
X8070Y-5708D02*
X11515Y-5708D01*
X11515Y-5708D02*
X11614Y-5610D01*
X11614Y-5610D02*
X11614Y-1944D01*
X11614Y-1944D02*
X11122Y-1452D01*
X688Y-4452D02*
X665Y-4452D01*
X665Y-4452D02*
X196Y-4921D01*
X196Y-4921D02*
X196Y-5511D01*
X196Y-5511D02*
X393Y-5708D01*
X393Y-5708D02*
X2854Y-5708D01*
X2854Y-5708D02*
X3937Y-5708D01*
X3937Y-5708D02*
X5838Y-5708D01*
X4362Y-5216D02*
X4015Y-4870D01*
X4015Y-4870D02*
X4015Y-2401D01*
G54D10*
G36*
X11641Y-5735D02*
X11572Y-5735D01*
X11572Y-3363D01*
X11572Y-2363D01*
X11554Y-2320D01*
X11554Y-1526D01*
X11549Y-1355D01*
X11492Y-1218D01*
X11428Y-1186D01*
X11388Y-1227D01*
X11388Y-1146D01*
X11355Y-1081D01*
X11196Y-1020D01*
X11025Y-1025D01*
X10888Y-1081D01*
X10856Y-1146D01*
X11122Y-1412D01*
X11388Y-1146D01*
X11388Y-1227D01*
X11162Y-1452D01*
X11428Y-1718D01*
X11492Y-1686D01*
X11554Y-1526D01*
X11554Y-2320D01*
X11503Y-2198D01*
X11388Y-2082D01*
X11388Y-1759D01*
X11122Y-1493D01*
X11081Y-1534D01*
X11081Y-1452D01*
X10815Y-1186D01*
X10751Y-1218D01*
X10689Y-1378D01*
X10694Y-1549D01*
X10751Y-1686D01*
X10815Y-1718D01*
X11081Y-1452D01*
X11081Y-1534D01*
X10856Y-1759D01*
X10888Y-1823D01*
X11047Y-1884D01*
X11218Y-1880D01*
X11355Y-1823D01*
X11388Y-1759D01*
X11388Y-2082D01*
X11377Y-2071D01*
X11211Y-2002D01*
X11032Y-2002D01*
X10867Y-2071D01*
X10740Y-2197D01*
X10672Y-2362D01*
X10671Y-2541D01*
X10690Y-2587D01*
X10416Y-2860D01*
X6918Y-2860D01*
X6891Y-2833D01*
X6788Y-2790D01*
X6676Y-2790D01*
X6573Y-2833D01*
X6495Y-2912D01*
X6461Y-2994D01*
X6461Y-417D01*
X6418Y-314D01*
X6339Y-235D01*
X6237Y-192D01*
X6125Y-192D01*
X6022Y-234D01*
X5995Y-262D01*
X3611Y-262D01*
X3583Y-235D01*
X3481Y-192D01*
X3369Y-192D01*
X3266Y-234D01*
X3239Y-262D01*
X3031Y-262D01*
X2669Y-262D01*
X2588Y-278D01*
X2520Y-323D01*
X2520Y-323D01*
X2501Y-343D01*
X2501Y-343D01*
X1139Y-1705D01*
X1139Y-1123D01*
X1116Y-1067D01*
X1074Y-1025D01*
X1018Y-1002D01*
X959Y-1002D01*
X359Y-1002D01*
X304Y-1025D01*
X261Y-1067D01*
X239Y-1122D01*
X238Y-1182D01*
X238Y-1782D01*
X261Y-1837D01*
X303Y-1879D01*
X359Y-1902D01*
X418Y-1902D01*
X941Y-1902D01*
X823Y-2021D01*
X778Y-2002D01*
X599Y-2002D01*
X434Y-2071D01*
X307Y-2197D01*
X239Y-2362D01*
X238Y-2541D01*
X307Y-2707D01*
X433Y-2834D01*
X599Y-2902D01*
X778Y-2902D01*
X943Y-2834D01*
X1070Y-2707D01*
X1089Y-2662D01*
X1089Y-2771D01*
X834Y-3025D01*
X778Y-3002D01*
X599Y-3002D01*
X434Y-3071D01*
X307Y-3197D01*
X239Y-3362D01*
X238Y-3541D01*
X307Y-3707D01*
X433Y-3834D01*
X599Y-3902D01*
X778Y-3902D01*
X943Y-3834D01*
X1070Y-3707D01*
X1138Y-3542D01*
X1139Y-3363D01*
X1124Y-3329D01*
X1447Y-3006D01*
X1493Y-2938D01*
X1509Y-2858D01*
X1509Y-2291D01*
X2803Y-997D01*
X3370Y-997D01*
X3385Y-997D01*
X4527Y-997D01*
X5758Y-997D01*
X5786Y-1024D01*
X5888Y-1067D01*
X6000Y-1067D01*
X6103Y-1024D01*
X6182Y-946D01*
X6224Y-843D01*
X6224Y-752D01*
X6236Y-752D01*
X6339Y-709D01*
X6418Y-631D01*
X6460Y-528D01*
X6461Y-417D01*
X6461Y-2994D01*
X6456Y-3004D01*
X6418Y-2912D01*
X6339Y-2833D01*
X6237Y-2790D01*
X6125Y-2790D01*
X6022Y-2833D01*
X5943Y-2912D01*
X5901Y-3014D01*
X5901Y-3126D01*
X5943Y-3229D01*
X6022Y-3308D01*
X6125Y-3350D01*
X6164Y-3350D01*
X6701Y-3888D01*
X6770Y-3934D01*
X6850Y-3950D01*
X9007Y-3950D01*
X9247Y-4190D01*
X9247Y-4228D01*
X9290Y-4331D01*
X9368Y-4410D01*
X9471Y-4453D01*
X9582Y-4453D01*
X9685Y-4410D01*
X9764Y-4331D01*
X9807Y-4229D01*
X9807Y-4117D01*
X9765Y-4014D01*
X9686Y-3936D01*
X9583Y-3893D01*
X9544Y-3893D01*
X9242Y-3591D01*
X9174Y-3546D01*
X9094Y-3530D01*
X6937Y-3530D01*
X6758Y-3350D01*
X6787Y-3350D01*
X6890Y-3308D01*
X6918Y-3280D01*
X10503Y-3280D01*
X10584Y-3264D01*
X10652Y-3219D01*
X10987Y-2884D01*
X11032Y-2902D01*
X11211Y-2902D01*
X11376Y-2834D01*
X11503Y-2707D01*
X11571Y-2542D01*
X11572Y-2363D01*
X11572Y-3363D01*
X11503Y-3198D01*
X11377Y-3071D01*
X11211Y-3002D01*
X11032Y-3002D01*
X10867Y-3071D01*
X10740Y-3197D01*
X10672Y-3362D01*
X10671Y-3541D01*
X10740Y-3707D01*
X10866Y-3834D01*
X11032Y-3902D01*
X11211Y-3902D01*
X11376Y-3834D01*
X11503Y-3707D01*
X11571Y-3542D01*
X11572Y-3363D01*
X11572Y-5735D01*
X11572Y-5735D01*
X11572Y-4723D01*
X11572Y-4123D01*
X11549Y-4067D01*
X11507Y-4025D01*
X11452Y-4002D01*
X11392Y-4002D01*
X10792Y-4002D01*
X10737Y-4025D01*
X10694Y-4067D01*
X10672Y-4122D01*
X10672Y-4182D01*
X10672Y-4782D01*
X10694Y-4837D01*
X10736Y-4879D01*
X10792Y-4902D01*
X10851Y-4902D01*
X11451Y-4902D01*
X11506Y-4879D01*
X11549Y-4837D01*
X11572Y-4782D01*
X11572Y-4723D01*
X11572Y-5735D01*
X10821Y-5735D01*
X10821Y-5253D01*
X10774Y-5139D01*
X10687Y-5052D01*
X10573Y-5005D01*
X10499Y-5005D01*
X10109Y-4615D01*
X10040Y-4569D01*
X9960Y-4553D01*
X8298Y-4553D01*
X8246Y-4501D01*
X8132Y-4454D01*
X8009Y-4454D01*
X7895Y-4501D01*
X7808Y-4588D01*
X7761Y-4701D01*
X7761Y-4825D01*
X7808Y-4938D01*
X7895Y-5025D01*
X8009Y-5073D01*
X8132Y-5073D01*
X8245Y-5026D01*
X8298Y-4973D01*
X9873Y-4973D01*
X10202Y-5302D01*
X10202Y-5376D01*
X10249Y-5490D01*
X10336Y-5577D01*
X10449Y-5624D01*
X10573Y-5624D01*
X10686Y-5577D01*
X10773Y-5490D01*
X10821Y-5376D01*
X10821Y-5253D01*
X10821Y-5735D01*
X7327Y-5735D01*
X7327Y-4590D01*
X7284Y-4487D01*
X7206Y-4408D01*
X7103Y-4365D01*
X6991Y-4365D01*
X6888Y-4408D01*
X6861Y-4435D01*
X5901Y-4435D01*
X5821Y-4451D01*
X5753Y-4497D01*
X5753Y-4497D01*
X5465Y-4785D01*
X5420Y-4766D01*
X5241Y-4766D01*
X5076Y-4834D01*
X4949Y-4961D01*
X4880Y-5126D01*
X4880Y-5305D01*
X4948Y-5471D01*
X5075Y-5597D01*
X5240Y-5666D01*
X5419Y-5666D01*
X5585Y-5598D01*
X5711Y-5471D01*
X5780Y-5306D01*
X5780Y-5127D01*
X5762Y-5082D01*
X5988Y-4855D01*
X6055Y-4855D01*
X5949Y-4961D01*
X5880Y-5126D01*
X5880Y-5305D01*
X5948Y-5471D01*
X6075Y-5597D01*
X6240Y-5666D01*
X6419Y-5666D01*
X6585Y-5598D01*
X6711Y-5471D01*
X6780Y-5306D01*
X6780Y-5127D01*
X6712Y-4961D01*
X6606Y-4855D01*
X6861Y-4855D01*
X6888Y-4882D01*
X6991Y-4925D01*
X7102Y-4925D01*
X7205Y-4883D01*
X7284Y-4804D01*
X7327Y-4701D01*
X7327Y-4590D01*
X7327Y-5735D01*
X4812Y-5735D01*
X4812Y-5127D01*
X4743Y-4961D01*
X4617Y-4835D01*
X4452Y-4766D01*
X4273Y-4766D01*
X4227Y-4785D01*
X4225Y-4783D01*
X4225Y-2587D01*
X4252Y-2560D01*
X4295Y-2457D01*
X4295Y-2346D01*
X4253Y-2243D01*
X4174Y-2164D01*
X4071Y-2121D01*
X3960Y-2121D01*
X3857Y-2164D01*
X3778Y-2242D01*
X3735Y-2345D01*
X3735Y-2457D01*
X3778Y-2559D01*
X3805Y-2587D01*
X3805Y-4870D01*
X3821Y-4950D01*
X3867Y-5018D01*
X3930Y-5082D01*
X3912Y-5126D01*
X3912Y-5305D01*
X3980Y-5471D01*
X4106Y-5597D01*
X4272Y-5666D01*
X4451Y-5666D01*
X4616Y-5598D01*
X4743Y-5471D01*
X4812Y-5306D01*
X4812Y-5127D01*
X4812Y-5735D01*
X3778Y-5735D01*
X3778Y-5290D01*
X3774Y-5119D01*
X3717Y-4982D01*
X3653Y-4950D01*
X3612Y-4991D01*
X3612Y-4909D01*
X3580Y-4845D01*
X3420Y-4784D01*
X3249Y-4788D01*
X3112Y-4845D01*
X3080Y-4909D01*
X3346Y-5175D01*
X3612Y-4909D01*
X3612Y-4991D01*
X3387Y-5216D01*
X3653Y-5482D01*
X3717Y-5450D01*
X3778Y-5290D01*
X3778Y-5735D01*
X3612Y-5735D01*
X3612Y-5523D01*
X3346Y-5257D01*
X3305Y-5297D01*
X3305Y-5216D01*
X3039Y-4950D01*
X2975Y-4982D01*
X2914Y-5142D01*
X2918Y-5313D01*
X2975Y-5450D01*
X3039Y-5482D01*
X3305Y-5216D01*
X3305Y-5297D01*
X3080Y-5523D01*
X3112Y-5587D01*
X3272Y-5648D01*
X3443Y-5644D01*
X3580Y-5587D01*
X3612Y-5523D01*
X3612Y-5735D01*
X2796Y-5735D01*
X2796Y-5486D01*
X2796Y-4886D01*
X2773Y-4831D01*
X2731Y-4789D01*
X2676Y-4766D01*
X2616Y-4766D01*
X2016Y-4766D01*
X1961Y-4789D01*
X1919Y-4831D01*
X1896Y-4886D01*
X1896Y-4946D01*
X1896Y-5546D01*
X1919Y-5601D01*
X1961Y-5643D01*
X2016Y-5666D01*
X2076Y-5666D01*
X2676Y-5666D01*
X2731Y-5643D01*
X2773Y-5601D01*
X2796Y-5546D01*
X2796Y-5486D01*
X2796Y-5735D01*
X1121Y-5735D01*
X1121Y-4526D01*
X1116Y-4355D01*
X1059Y-4218D01*
X995Y-4186D01*
X954Y-4227D01*
X954Y-4146D01*
X922Y-4081D01*
X763Y-4020D01*
X592Y-4025D01*
X455Y-4081D01*
X422Y-4146D01*
X688Y-4412D01*
X954Y-4146D01*
X954Y-4227D01*
X729Y-4452D01*
X995Y-4718D01*
X1059Y-4686D01*
X1121Y-4526D01*
X1121Y-5735D01*
X954Y-5735D01*
X954Y-4759D01*
X688Y-4493D01*
X648Y-4534D01*
X648Y-4452D01*
X382Y-4186D01*
X318Y-4218D01*
X256Y-4378D01*
X261Y-4549D01*
X318Y-4686D01*
X382Y-4718D01*
X648Y-4452D01*
X648Y-4534D01*
X422Y-4759D01*
X455Y-4823D01*
X614Y-4884D01*
X785Y-4880D01*
X922Y-4823D01*
X954Y-4759D01*
X954Y-5735D01*
X169Y-5735D01*
X169Y-169D01*
X11641Y-169D01*
X11641Y-5735D01*
X11641Y-5735D01*
G37*
G54D16*
X11641Y-5735D02*
X11572Y-5735D01*
X11572Y-3363D01*
X11572Y-2363D01*
X11554Y-2320D01*
X11554Y-1526D01*
X11549Y-1355D01*
X11492Y-1218D01*
X11428Y-1186D01*
X11388Y-1227D01*
X11388Y-1146D01*
X11355Y-1081D01*
X11196Y-1020D01*
X11025Y-1025D01*
X10888Y-1081D01*
X10856Y-1146D01*
X11122Y-1412D01*
X11388Y-1146D01*
X11388Y-1227D01*
X11162Y-1452D01*
X11428Y-1718D01*
X11492Y-1686D01*
X11554Y-1526D01*
X11554Y-2320D01*
X11503Y-2198D01*
X11388Y-2082D01*
X11388Y-1759D01*
X11122Y-1493D01*
X11081Y-1534D01*
X11081Y-1452D01*
X10815Y-1186D01*
X10751Y-1218D01*
X10689Y-1378D01*
X10694Y-1549D01*
X10751Y-1686D01*
X10815Y-1718D01*
X11081Y-1452D01*
X11081Y-1534D01*
X10856Y-1759D01*
X10888Y-1823D01*
X11047Y-1884D01*
X11218Y-1880D01*
X11355Y-1823D01*
X11388Y-1759D01*
X11388Y-2082D01*
X11377Y-2071D01*
X11211Y-2002D01*
X11032Y-2002D01*
X10867Y-2071D01*
X10740Y-2197D01*
X10672Y-2362D01*
X10671Y-2541D01*
X10690Y-2587D01*
X10416Y-2860D01*
X6918Y-2860D01*
X6891Y-2833D01*
X6788Y-2790D01*
X6676Y-2790D01*
X6573Y-2833D01*
X6495Y-2912D01*
X6461Y-2994D01*
X6461Y-417D01*
X6418Y-314D01*
X6339Y-235D01*
X6237Y-192D01*
X6125Y-192D01*
X6022Y-234D01*
X5995Y-262D01*
X3611Y-262D01*
X3583Y-235D01*
X3481Y-192D01*
X3369Y-192D01*
X3266Y-234D01*
X3239Y-262D01*
X3031Y-262D01*
X2669Y-262D01*
X2588Y-278D01*
X2520Y-323D01*
X2520Y-323D01*
X2501Y-343D01*
X2501Y-343D01*
X1139Y-1705D01*
X1139Y-1123D01*
X1116Y-1067D01*
X1074Y-1025D01*
X1018Y-1002D01*
X959Y-1002D01*
X359Y-1002D01*
X304Y-1025D01*
X261Y-1067D01*
X239Y-1122D01*
X238Y-1182D01*
X238Y-1782D01*
X261Y-1837D01*
X303Y-1879D01*
X359Y-1902D01*
X418Y-1902D01*
X941Y-1902D01*
X823Y-2021D01*
X778Y-2002D01*
X599Y-2002D01*
X434Y-2071D01*
X307Y-2197D01*
X239Y-2362D01*
X238Y-2541D01*
X307Y-2707D01*
X433Y-2834D01*
X599Y-2902D01*
X778Y-2902D01*
X943Y-2834D01*
X1070Y-2707D01*
X1089Y-2662D01*
X1089Y-2771D01*
X834Y-3025D01*
X778Y-3002D01*
X599Y-3002D01*
X434Y-3071D01*
X307Y-3197D01*
X239Y-3362D01*
X238Y-3541D01*
X307Y-3707D01*
X433Y-3834D01*
X599Y-3902D01*
X778Y-3902D01*
X943Y-3834D01*
X1070Y-3707D01*
X1138Y-3542D01*
X1139Y-3363D01*
X1124Y-3329D01*
X1447Y-3006D01*
X1493Y-2938D01*
X1509Y-2858D01*
X1509Y-2291D01*
X2803Y-997D01*
X3370Y-997D01*
X3385Y-997D01*
X4527Y-997D01*
X5758Y-997D01*
X5786Y-1024D01*
X5888Y-1067D01*
X6000Y-1067D01*
X6103Y-1024D01*
X6182Y-946D01*
X6224Y-843D01*
X6224Y-752D01*
X6236Y-752D01*
X6339Y-709D01*
X6418Y-631D01*
X6460Y-528D01*
X6461Y-417D01*
X6461Y-2994D01*
X6456Y-3004D01*
X6418Y-2912D01*
X6339Y-2833D01*
X6237Y-2790D01*
X6125Y-2790D01*
X6022Y-2833D01*
X5943Y-2912D01*
X5901Y-3014D01*
X5901Y-3126D01*
X5943Y-3229D01*
X6022Y-3308D01*
X6125Y-3350D01*
X6164Y-3350D01*
X6701Y-3888D01*
X6770Y-3934D01*
X6850Y-3950D01*
X9007Y-3950D01*
X9247Y-4190D01*
X9247Y-4228D01*
X9290Y-4331D01*
X9368Y-4410D01*
X9471Y-4453D01*
X9582Y-4453D01*
X9685Y-4410D01*
X9764Y-4331D01*
X9807Y-4229D01*
X9807Y-4117D01*
X9765Y-4014D01*
X9686Y-3936D01*
X9583Y-3893D01*
X9544Y-3893D01*
X9242Y-3591D01*
X9174Y-3546D01*
X9094Y-3530D01*
X6937Y-3530D01*
X6758Y-3350D01*
X6787Y-3350D01*
X6890Y-3308D01*
X6918Y-3280D01*
X10503Y-3280D01*
X10584Y-3264D01*
X10652Y-3219D01*
X10987Y-2884D01*
X11032Y-2902D01*
X11211Y-2902D01*
X11376Y-2834D01*
X11503Y-2707D01*
X11571Y-2542D01*
X11572Y-2363D01*
X11572Y-3363D01*
X11503Y-3198D01*
X11377Y-3071D01*
X11211Y-3002D01*
X11032Y-3002D01*
X10867Y-3071D01*
X10740Y-3197D01*
X10672Y-3362D01*
X10671Y-3541D01*
X10740Y-3707D01*
X10866Y-3834D01*
X11032Y-3902D01*
X11211Y-3902D01*
X11376Y-3834D01*
X11503Y-3707D01*
X11571Y-3542D01*
X11572Y-3363D01*
X11572Y-5735D01*
X11572Y-5735D01*
X11572Y-4723D01*
X11572Y-4123D01*
X11549Y-4067D01*
X11507Y-4025D01*
X11452Y-4002D01*
X11392Y-4002D01*
X10792Y-4002D01*
X10737Y-4025D01*
X10694Y-4067D01*
X10672Y-4122D01*
X10672Y-4182D01*
X10672Y-4782D01*
X10694Y-4837D01*
X10736Y-4879D01*
X10792Y-4902D01*
X10851Y-4902D01*
X11451Y-4902D01*
X11506Y-4879D01*
X11549Y-4837D01*
X11572Y-4782D01*
X11572Y-4723D01*
X11572Y-5735D01*
X10821Y-5735D01*
X10821Y-5253D01*
X10774Y-5139D01*
X10687Y-5052D01*
X10573Y-5005D01*
X10499Y-5005D01*
X10109Y-4615D01*
X10040Y-4569D01*
X9960Y-4553D01*
X8298Y-4553D01*
X8246Y-4501D01*
X8132Y-4454D01*
X8009Y-4454D01*
X7895Y-4501D01*
X7808Y-4588D01*
X7761Y-4701D01*
X7761Y-4825D01*
X7808Y-4938D01*
X7895Y-5025D01*
X8009Y-5073D01*
X8132Y-5073D01*
X8245Y-5026D01*
X8298Y-4973D01*
X9873Y-4973D01*
X10202Y-5302D01*
X10202Y-5376D01*
X10249Y-5490D01*
X10336Y-5577D01*
X10449Y-5624D01*
X10573Y-5624D01*
X10686Y-5577D01*
X10773Y-5490D01*
X10821Y-5376D01*
X10821Y-5253D01*
X10821Y-5735D01*
X7327Y-5735D01*
X7327Y-4590D01*
X7284Y-4487D01*
X7206Y-4408D01*
X7103Y-4365D01*
X6991Y-4365D01*
X6888Y-4408D01*
X6861Y-4435D01*
X5901Y-4435D01*
X5821Y-4451D01*
X5753Y-4497D01*
X5753Y-4497D01*
X5465Y-4785D01*
X5420Y-4766D01*
X5241Y-4766D01*
X5076Y-4834D01*
X4949Y-4961D01*
X4880Y-5126D01*
X4880Y-5305D01*
X4948Y-5471D01*
X5075Y-5597D01*
X5240Y-5666D01*
X5419Y-5666D01*
X5585Y-5598D01*
X5711Y-5471D01*
X5780Y-5306D01*
X5780Y-5127D01*
X5762Y-5082D01*
X5988Y-4855D01*
X6055Y-4855D01*
X5949Y-4961D01*
X5880Y-5126D01*
X5880Y-5305D01*
X5948Y-5471D01*
X6075Y-5597D01*
X6240Y-5666D01*
X6419Y-5666D01*
X6585Y-5598D01*
X6711Y-5471D01*
X6780Y-5306D01*
X6780Y-5127D01*
X6712Y-4961D01*
X6606Y-4855D01*
X6861Y-4855D01*
X6888Y-4882D01*
X6991Y-4925D01*
X7102Y-4925D01*
X7205Y-4883D01*
X7284Y-4804D01*
X7327Y-4701D01*
X7327Y-4590D01*
X7327Y-5735D01*
X4812Y-5735D01*
X4812Y-5127D01*
X4743Y-4961D01*
X4617Y-4835D01*
X4452Y-4766D01*
X4273Y-4766D01*
X4227Y-4785D01*
X4225Y-4783D01*
X4225Y-2587D01*
X4252Y-2560D01*
X4295Y-2457D01*
X4295Y-2346D01*
X4253Y-2243D01*
X4174Y-2164D01*
X4071Y-2121D01*
X3960Y-2121D01*
X3857Y-2164D01*
X3778Y-2242D01*
X3735Y-2345D01*
X3735Y-2457D01*
X3778Y-2559D01*
X3805Y-2587D01*
X3805Y-4870D01*
X3821Y-4950D01*
X3867Y-5018D01*
X3930Y-5082D01*
X3912Y-5126D01*
X3912Y-5305D01*
X3980Y-5471D01*
X4106Y-5597D01*
X4272Y-5666D01*
X4451Y-5666D01*
X4616Y-5598D01*
X4743Y-5471D01*
X4812Y-5306D01*
X4812Y-5127D01*
X4812Y-5735D01*
X3778Y-5735D01*
X3778Y-5290D01*
X3774Y-5119D01*
X3717Y-4982D01*
X3653Y-4950D01*
X3612Y-4991D01*
X3612Y-4909D01*
X3580Y-4845D01*
X3420Y-4784D01*
X3249Y-4788D01*
X3112Y-4845D01*
X3080Y-4909D01*
X3346Y-5175D01*
X3612Y-4909D01*
X3612Y-4991D01*
X3387Y-5216D01*
X3653Y-5482D01*
X3717Y-5450D01*
X3778Y-5290D01*
X3778Y-5735D01*
X3612Y-5735D01*
X3612Y-5523D01*
X3346Y-5257D01*
X3305Y-5297D01*
X3305Y-5216D01*
X3039Y-4950D01*
X2975Y-4982D01*
X2914Y-5142D01*
X2918Y-5313D01*
X2975Y-5450D01*
X3039Y-5482D01*
X3305Y-5216D01*
X3305Y-5297D01*
X3080Y-5523D01*
X3112Y-5587D01*
X3272Y-5648D01*
X3443Y-5644D01*
X3580Y-5587D01*
X3612Y-5523D01*
X3612Y-5735D01*
X2796Y-5735D01*
X2796Y-5486D01*
X2796Y-4886D01*
X2773Y-4831D01*
X2731Y-4789D01*
X2676Y-4766D01*
X2616Y-4766D01*
X2016Y-4766D01*
X1961Y-4789D01*
X1919Y-4831D01*
X1896Y-4886D01*
X1896Y-4946D01*
X1896Y-5546D01*
X1919Y-5601D01*
X1961Y-5643D01*
X2016Y-5666D01*
X2076Y-5666D01*
X2676Y-5666D01*
X2731Y-5643D01*
X2773Y-5601D01*
X2796Y-5546D01*
X2796Y-5486D01*
X2796Y-5735D01*
X1121Y-5735D01*
X1121Y-4526D01*
X1116Y-4355D01*
X1059Y-4218D01*
X995Y-4186D01*
X954Y-4227D01*
X954Y-4146D01*
X922Y-4081D01*
X763Y-4020D01*
X592Y-4025D01*
X455Y-4081D01*
X422Y-4146D01*
X688Y-4412D01*
X954Y-4146D01*
X954Y-4227D01*
X729Y-4452D01*
X995Y-4718D01*
X1059Y-4686D01*
X1121Y-4526D01*
X1121Y-5735D01*
X954Y-5735D01*
X954Y-4759D01*
X688Y-4493D01*
X648Y-4534D01*
X648Y-4452D01*
X382Y-4186D01*
X318Y-4218D01*
X256Y-4378D01*
X261Y-4549D01*
X318Y-4686D01*
X382Y-4718D01*
X648Y-4452D01*
X648Y-4534D01*
X422Y-4759D01*
X455Y-4823D01*
X614Y-4884D01*
X785Y-4880D01*
X922Y-4823D01*
X954Y-4759D01*
X954Y-5735D01*
X169Y-5735D01*
X169Y-169D01*
X11641Y-169D01*
X11641Y-5735D01*
M02*
