G04 (created by PCBNEW (2013-07-07 BZR 4022)-stable) date 04/11/2014 12:02:10*
%MOIN*%
G04 Gerber Fmt 3.4, Leading zero omitted, Abs format*
%FSLAX34Y34*%
G01*
G70*
G90*
G04 APERTURE LIST*
%ADD10C,0.00590551*%
%ADD11C,0.006*%
%ADD12C,0.005*%
%ADD13C,0.0028*%
G04 APERTURE END LIST*
G54D10*
X10622Y-1952D02*
X10622Y-952D01*
X10622Y-952D02*
X11622Y-952D01*
G54D11*
X11622Y-4937D02*
X10622Y-4937D01*
X10622Y-4937D02*
X10622Y-1937D01*
G54D10*
X1188Y-3952D02*
X1188Y-4952D01*
X1188Y-4952D02*
X188Y-4952D01*
G54D11*
X188Y-968D02*
X1188Y-968D01*
X1188Y-968D02*
X1188Y-3968D01*
G54D12*
X1903Y-1085D02*
X1903Y-1985D01*
X1903Y-1985D02*
X1403Y-1985D01*
X1403Y-1985D02*
X1403Y-1085D01*
X1403Y-1085D02*
X1903Y-1085D01*
X7345Y-498D02*
X8245Y-498D01*
X8245Y-498D02*
X8245Y-998D01*
X8245Y-998D02*
X7345Y-998D01*
X7345Y-998D02*
X7345Y-498D01*
X8245Y-1706D02*
X7345Y-1706D01*
X7345Y-1706D02*
X7345Y-1206D01*
X7345Y-1206D02*
X8245Y-1206D01*
X8245Y-1206D02*
X8245Y-1706D01*
X1442Y-4268D02*
X1442Y-3368D01*
X1442Y-3368D02*
X1942Y-3368D01*
X1942Y-3368D02*
X1942Y-4268D01*
X1942Y-4268D02*
X1442Y-4268D01*
X2651Y-3368D02*
X2651Y-4268D01*
X2651Y-4268D02*
X2151Y-4268D01*
X2151Y-4268D02*
X2151Y-3368D01*
X2151Y-3368D02*
X2651Y-3368D01*
X7348Y-3087D02*
X7348Y-2187D01*
X7348Y-2187D02*
X7848Y-2187D01*
X7848Y-2187D02*
X7848Y-3087D01*
X7848Y-3087D02*
X7348Y-3087D01*
X7348Y-4268D02*
X7348Y-3368D01*
X7348Y-3368D02*
X7848Y-3368D01*
X7848Y-3368D02*
X7848Y-4268D01*
X7848Y-4268D02*
X7348Y-4268D01*
X2190Y-2379D02*
X2190Y-1479D01*
X2190Y-1479D02*
X2690Y-1479D01*
X2690Y-1479D02*
X2690Y-2379D01*
X2690Y-2379D02*
X2190Y-2379D01*
G54D13*
X8078Y-3328D02*
X8078Y-3528D01*
X8078Y-3528D02*
X8378Y-3528D01*
X8378Y-3528D02*
X8378Y-3328D01*
X8078Y-3128D02*
X8078Y-2928D01*
X8078Y-2928D02*
X8378Y-2928D01*
X8378Y-2928D02*
X8378Y-3128D01*
X8693Y-4900D02*
X8693Y-4700D01*
X8693Y-4700D02*
X8393Y-4700D01*
X8393Y-4700D02*
X8393Y-4900D01*
X8693Y-5100D02*
X8693Y-5300D01*
X8693Y-5300D02*
X8393Y-5300D01*
X8393Y-5300D02*
X8393Y-5100D01*
X2369Y-2974D02*
X2369Y-3174D01*
X2369Y-3174D02*
X2669Y-3174D01*
X2669Y-3174D02*
X2669Y-2974D01*
X2369Y-2774D02*
X2369Y-2574D01*
X2369Y-2574D02*
X2669Y-2574D01*
X2669Y-2574D02*
X2669Y-2774D01*
X1792Y-858D02*
X1992Y-858D01*
X1992Y-858D02*
X1992Y-558D01*
X1992Y-558D02*
X1792Y-558D01*
X1592Y-858D02*
X1392Y-858D01*
X1392Y-858D02*
X1392Y-558D01*
X1392Y-558D02*
X1592Y-558D01*
G54D12*
X3262Y-3605D02*
G75*
G03X3262Y-3605I-141J0D01*
G74*
G01*
X2921Y-2505D02*
X3221Y-2505D01*
X3221Y-2505D02*
X3221Y-3005D01*
X3221Y-3005D02*
X2921Y-3005D01*
X6971Y-3805D02*
X2921Y-3805D01*
X2921Y-1705D02*
X6971Y-1705D01*
X2921Y-1705D02*
X2921Y-3805D01*
X6971Y-1705D02*
X6971Y-3805D01*
G54D10*
X4830Y-4716D02*
X6830Y-4716D01*
G54D11*
X1846Y-5716D02*
X1846Y-4716D01*
X1846Y-4716D02*
X4846Y-4716D01*
X6846Y-4716D02*
X6846Y-5716D01*
G54D10*
X9724Y-3332D02*
G75*
G03X9724Y-3332I-196J0D01*
G74*
G01*
X10118Y-2151D02*
G75*
G03X10118Y-2151I-590J0D01*
G74*
G01*
X8740Y-4218D02*
X10314Y-4218D01*
X10314Y-4218D02*
X10314Y-970D01*
X10314Y-970D02*
X8740Y-970D01*
X8740Y-970D02*
X8740Y-4218D01*
G54D12*
X4786Y-419D02*
X5686Y-419D01*
X5686Y-419D02*
X5686Y-919D01*
X5686Y-919D02*
X4786Y-919D01*
X4786Y-919D02*
X4786Y-419D01*
X4583Y-919D02*
X3683Y-919D01*
X3683Y-919D02*
X3683Y-419D01*
X3683Y-419D02*
X4583Y-419D01*
X4583Y-419D02*
X4583Y-919D01*
G54D10*
X10900Y-810D02*
X10900Y-510D01*
X11014Y-510D01*
X11043Y-524D01*
X11057Y-538D01*
X11072Y-567D01*
X11072Y-610D01*
X11057Y-638D01*
X11043Y-653D01*
X11014Y-667D01*
X10900Y-667D01*
X11186Y-538D02*
X11200Y-524D01*
X11229Y-510D01*
X11300Y-510D01*
X11329Y-524D01*
X11343Y-538D01*
X11357Y-567D01*
X11357Y-596D01*
X11343Y-638D01*
X11172Y-810D01*
X11357Y-810D01*
X467Y-810D02*
X467Y-510D01*
X581Y-510D01*
X610Y-524D01*
X624Y-538D01*
X638Y-567D01*
X638Y-610D01*
X624Y-638D01*
X610Y-653D01*
X581Y-667D01*
X467Y-667D01*
X924Y-810D02*
X753Y-810D01*
X838Y-810D02*
X838Y-510D01*
X810Y-553D01*
X781Y-581D01*
X753Y-596D01*
X1785Y-2333D02*
X1800Y-2347D01*
X1814Y-2390D01*
X1814Y-2419D01*
X1800Y-2462D01*
X1771Y-2490D01*
X1742Y-2504D01*
X1685Y-2519D01*
X1642Y-2519D01*
X1585Y-2504D01*
X1557Y-2490D01*
X1528Y-2462D01*
X1514Y-2419D01*
X1514Y-2390D01*
X1528Y-2347D01*
X1542Y-2333D01*
X1814Y-2047D02*
X1814Y-2219D01*
X1814Y-2133D02*
X1514Y-2133D01*
X1557Y-2162D01*
X1585Y-2190D01*
X1600Y-2219D01*
X8532Y-790D02*
X8432Y-647D01*
X8361Y-790D02*
X8361Y-490D01*
X8475Y-490D01*
X8504Y-505D01*
X8518Y-519D01*
X8532Y-547D01*
X8532Y-590D01*
X8518Y-619D01*
X8504Y-633D01*
X8475Y-647D01*
X8361Y-647D01*
X8804Y-490D02*
X8661Y-490D01*
X8646Y-633D01*
X8661Y-619D01*
X8689Y-605D01*
X8761Y-605D01*
X8789Y-619D01*
X8804Y-633D01*
X8818Y-662D01*
X8818Y-733D01*
X8804Y-762D01*
X8789Y-776D01*
X8761Y-790D01*
X8689Y-790D01*
X8661Y-776D01*
X8646Y-762D01*
X8664Y-1506D02*
X8521Y-1606D01*
X8664Y-1678D02*
X8364Y-1678D01*
X8364Y-1563D01*
X8379Y-1535D01*
X8393Y-1520D01*
X8421Y-1506D01*
X8464Y-1506D01*
X8493Y-1520D01*
X8507Y-1535D01*
X8521Y-1563D01*
X8521Y-1678D01*
X8464Y-1249D02*
X8664Y-1249D01*
X8350Y-1320D02*
X8564Y-1392D01*
X8564Y-1206D01*
X1696Y-3081D02*
X1553Y-3181D01*
X1696Y-3252D02*
X1396Y-3252D01*
X1396Y-3138D01*
X1410Y-3110D01*
X1424Y-3095D01*
X1453Y-3081D01*
X1496Y-3081D01*
X1524Y-3095D01*
X1539Y-3110D01*
X1553Y-3138D01*
X1553Y-3252D01*
X1424Y-2967D02*
X1410Y-2952D01*
X1396Y-2924D01*
X1396Y-2852D01*
X1410Y-2824D01*
X1424Y-2810D01*
X1453Y-2795D01*
X1481Y-2795D01*
X1524Y-2810D01*
X1696Y-2981D01*
X1696Y-2795D01*
X3034Y-4183D02*
X2891Y-4283D01*
X3034Y-4355D02*
X2734Y-4355D01*
X2734Y-4241D01*
X2749Y-4212D01*
X2763Y-4198D01*
X2791Y-4183D01*
X2834Y-4183D01*
X2863Y-4198D01*
X2877Y-4212D01*
X2891Y-4241D01*
X2891Y-4355D01*
X3034Y-3898D02*
X3034Y-4069D01*
X3034Y-3983D02*
X2734Y-3983D01*
X2777Y-4012D01*
X2806Y-4041D01*
X2820Y-4069D01*
X7971Y-2708D02*
X7971Y-2537D01*
X8271Y-2622D02*
X7971Y-2622D01*
X8271Y-2437D02*
X7971Y-2437D01*
X8113Y-2437D02*
X8113Y-2265D01*
X8271Y-2265D02*
X7971Y-2265D01*
X8271Y-1965D02*
X8271Y-2137D01*
X8271Y-2051D02*
X7971Y-2051D01*
X8013Y-2079D01*
X8042Y-2108D01*
X8056Y-2137D01*
X7719Y-4695D02*
X7576Y-4795D01*
X7719Y-4867D02*
X7419Y-4867D01*
X7419Y-4752D01*
X7434Y-4724D01*
X7448Y-4709D01*
X7476Y-4695D01*
X7519Y-4695D01*
X7548Y-4709D01*
X7562Y-4724D01*
X7576Y-4752D01*
X7576Y-4867D01*
X7419Y-4595D02*
X7419Y-4409D01*
X7534Y-4509D01*
X7534Y-4467D01*
X7548Y-4438D01*
X7562Y-4424D01*
X7591Y-4409D01*
X7662Y-4409D01*
X7691Y-4424D01*
X7705Y-4438D01*
X7719Y-4467D01*
X7719Y-4552D01*
X7705Y-4581D01*
X7691Y-4595D01*
X2651Y-1152D02*
X2666Y-1166D01*
X2680Y-1209D01*
X2680Y-1238D01*
X2666Y-1280D01*
X2637Y-1309D01*
X2609Y-1323D01*
X2551Y-1338D01*
X2509Y-1338D01*
X2451Y-1323D01*
X2423Y-1309D01*
X2394Y-1280D01*
X2380Y-1238D01*
X2380Y-1209D01*
X2394Y-1166D01*
X2409Y-1152D01*
X2380Y-1052D02*
X2380Y-866D01*
X2494Y-966D01*
X2494Y-923D01*
X2509Y-895D01*
X2523Y-880D01*
X2551Y-866D01*
X2623Y-866D01*
X2651Y-880D01*
X2666Y-895D01*
X2680Y-923D01*
X2680Y-1009D01*
X2666Y-1038D01*
X2651Y-1052D01*
X8257Y-3911D02*
X8242Y-3926D01*
X8199Y-3940D01*
X8171Y-3940D01*
X8128Y-3926D01*
X8099Y-3897D01*
X8085Y-3868D01*
X8071Y-3811D01*
X8071Y-3768D01*
X8085Y-3711D01*
X8099Y-3683D01*
X8128Y-3654D01*
X8171Y-3640D01*
X8199Y-3640D01*
X8242Y-3654D01*
X8257Y-3668D01*
X8528Y-3640D02*
X8385Y-3640D01*
X8371Y-3783D01*
X8385Y-3768D01*
X8414Y-3754D01*
X8485Y-3754D01*
X8514Y-3768D01*
X8528Y-3783D01*
X8542Y-3811D01*
X8542Y-3883D01*
X8528Y-3911D01*
X8514Y-3926D01*
X8485Y-3940D01*
X8414Y-3940D01*
X8385Y-3926D01*
X8371Y-3911D01*
X8335Y-4581D02*
X8321Y-4595D01*
X8278Y-4609D01*
X8250Y-4609D01*
X8207Y-4595D01*
X8178Y-4566D01*
X8164Y-4538D01*
X8150Y-4481D01*
X8150Y-4438D01*
X8164Y-4381D01*
X8178Y-4352D01*
X8207Y-4323D01*
X8250Y-4309D01*
X8278Y-4309D01*
X8321Y-4323D01*
X8335Y-4338D01*
X8592Y-4309D02*
X8535Y-4309D01*
X8507Y-4323D01*
X8492Y-4338D01*
X8464Y-4381D01*
X8450Y-4438D01*
X8450Y-4552D01*
X8464Y-4581D01*
X8478Y-4595D01*
X8507Y-4609D01*
X8564Y-4609D01*
X8592Y-4595D01*
X8607Y-4581D01*
X8621Y-4552D01*
X8621Y-4481D01*
X8607Y-4452D01*
X8592Y-4438D01*
X8564Y-4423D01*
X8507Y-4423D01*
X8478Y-4438D01*
X8464Y-4452D01*
X8450Y-4481D01*
X2297Y-2924D02*
X2311Y-2938D01*
X2326Y-2981D01*
X2326Y-3009D01*
X2311Y-3052D01*
X2283Y-3081D01*
X2254Y-3095D01*
X2197Y-3109D01*
X2154Y-3109D01*
X2097Y-3095D01*
X2069Y-3081D01*
X2040Y-3052D01*
X2026Y-3009D01*
X2026Y-2981D01*
X2040Y-2938D01*
X2054Y-2924D01*
X2126Y-2666D02*
X2326Y-2666D01*
X2011Y-2738D02*
X2226Y-2809D01*
X2226Y-2624D01*
X1642Y-447D02*
X1628Y-461D01*
X1585Y-475D01*
X1557Y-475D01*
X1514Y-461D01*
X1485Y-432D01*
X1471Y-404D01*
X1457Y-347D01*
X1457Y-304D01*
X1471Y-247D01*
X1485Y-218D01*
X1514Y-190D01*
X1557Y-175D01*
X1585Y-175D01*
X1628Y-190D01*
X1642Y-204D01*
X1757Y-204D02*
X1771Y-190D01*
X1800Y-175D01*
X1871Y-175D01*
X1900Y-190D01*
X1914Y-204D01*
X1928Y-232D01*
X1928Y-261D01*
X1914Y-304D01*
X1742Y-475D01*
X1928Y-475D01*
G54D12*
X6818Y-1278D02*
X6818Y-1520D01*
X6832Y-1549D01*
X6847Y-1563D01*
X6875Y-1578D01*
X6932Y-1578D01*
X6961Y-1563D01*
X6975Y-1549D01*
X6990Y-1520D01*
X6990Y-1278D01*
X7290Y-1578D02*
X7118Y-1578D01*
X7204Y-1578D02*
X7204Y-1278D01*
X7175Y-1320D01*
X7147Y-1349D01*
X7118Y-1363D01*
G54D10*
X1254Y-5436D02*
X1254Y-5136D01*
X1369Y-5136D01*
X1397Y-5150D01*
X1412Y-5164D01*
X1426Y-5193D01*
X1426Y-5236D01*
X1412Y-5264D01*
X1397Y-5279D01*
X1369Y-5293D01*
X1254Y-5293D01*
X1526Y-5136D02*
X1712Y-5136D01*
X1612Y-5250D01*
X1654Y-5250D01*
X1683Y-5264D01*
X1697Y-5279D01*
X1712Y-5307D01*
X1712Y-5379D01*
X1697Y-5407D01*
X1683Y-5422D01*
X1654Y-5436D01*
X1569Y-5436D01*
X1540Y-5422D01*
X1526Y-5407D01*
X10204Y-569D02*
X10204Y-812D01*
X10218Y-840D01*
X10233Y-855D01*
X10261Y-869D01*
X10318Y-869D01*
X10347Y-855D01*
X10361Y-840D01*
X10375Y-812D01*
X10375Y-569D01*
X10504Y-598D02*
X10518Y-583D01*
X10547Y-569D01*
X10618Y-569D01*
X10647Y-583D01*
X10661Y-598D01*
X10675Y-626D01*
X10675Y-655D01*
X10661Y-698D01*
X10490Y-869D01*
X10675Y-869D01*
X6012Y-908D02*
X5912Y-765D01*
X5841Y-908D02*
X5841Y-608D01*
X5955Y-608D01*
X5984Y-623D01*
X5998Y-637D01*
X6012Y-665D01*
X6012Y-708D01*
X5998Y-737D01*
X5984Y-751D01*
X5955Y-765D01*
X5841Y-765D01*
X6270Y-608D02*
X6212Y-608D01*
X6184Y-623D01*
X6170Y-637D01*
X6141Y-680D01*
X6127Y-737D01*
X6127Y-851D01*
X6141Y-880D01*
X6155Y-894D01*
X6184Y-908D01*
X6241Y-908D01*
X6270Y-894D01*
X6284Y-880D01*
X6298Y-851D01*
X6298Y-780D01*
X6284Y-751D01*
X6270Y-737D01*
X6241Y-723D01*
X6184Y-723D01*
X6155Y-737D01*
X6141Y-751D01*
X6127Y-780D01*
X3296Y-908D02*
X3196Y-765D01*
X3125Y-908D02*
X3125Y-608D01*
X3239Y-608D01*
X3267Y-623D01*
X3282Y-637D01*
X3296Y-665D01*
X3296Y-708D01*
X3282Y-737D01*
X3267Y-751D01*
X3239Y-765D01*
X3125Y-765D01*
X3396Y-608D02*
X3596Y-608D01*
X3467Y-908D01*
M02*
